<?xml version="1.0" encoding="UTF-8"?>
<svg version="1.1" xmlns="http://www.w3.org/2000/svg" width="512" height="512">
<path d="M0 0 C1.49356075 -0.00418104 2.98711833 -0.00966276 4.48067009 -0.01631981 C8.5539633 -0.03069216 12.62705275 -0.02655561 16.70035672 -0.019153 C21.1053817 -0.01440316 25.51036375 -0.02694717 29.91537476 -0.03717041 C38.53316956 -0.05432826 47.15089135 -0.05520469 55.7686988 -0.04995751 C62.77630928 -0.04590896 69.78389826 -0.04736748 76.79150772 -0.05270576 C78.29002687 -0.0538284 78.29002687 -0.0538284 79.81881914 -0.05497371 C81.8485945 -0.05650526 83.87836986 -0.0580436 85.9081452 -0.05958868 C104.92426812 -0.07330281 123.94034985 -0.06788367 142.95647182 -0.05640347 C160.33478161 -0.04647217 177.71298492 -0.05941191 195.0912783 -0.08333766 C212.95723293 -0.10774853 230.823138 -0.11733164 248.68910897 -0.11068493 C258.71072812 -0.10719714 268.73226541 -0.1093957 278.75387192 -0.12693596 C287.28490773 -0.1416828 295.815804 -0.14226097 304.34683715 -0.12486505 C308.69496446 -0.11637312 313.04284278 -0.11416106 317.39095688 -0.1295166 C321.37965121 -0.14342786 325.36788474 -0.13851879 329.35655285 -0.11927737 C330.79115655 -0.11553666 332.22579773 -0.11838302 333.66036783 -0.12888902 C352.16395897 -0.25464773 368.24958477 5.33862844 381.79568481 18.12815857 C395.49311269 31.66441314 401.16139797 48.54584313 401.29418724 67.50947381 C401.29552587 70.09393009 401.2823882 72.67809341 401.26899719 75.26251221 C401.27030738 77.15464221 401.27293772 79.04677168 401.27676469 80.93889827 C401.2834397 86.10871503 401.27151825 91.27834363 401.25643051 96.44813645 C401.24343116 102.03419026 401.24786236 107.62023414 401.25013733 113.20629883 C401.2517076 122.8747285 401.24232412 132.54309726 401.22542381 142.21151161 C401.20100501 156.19027207 401.19322559 170.16900318 401.18945984 184.14778265 C401.18289988 206.8294115 401.16297691 229.51100238 401.134552 252.19261169 C401.10697776 274.2209303 401.08573719 296.24924022 401.07302856 318.27757263 C401.0724367 319.29694212 401.0724367 319.29694212 401.07183287 320.33690492 C401.06787715 327.16182017 401.06404973 333.98673548 401.06031629 340.81165085 C401.02901849 398.00368318 400.97610299 455.19568011 400.90823364 512.38768005 C399.80786768 511.45446883 398.70894575 510.5195548 397.61061096 509.58395386 C396.99848975 509.06351218 396.38636854 508.54307051 395.7556982 508.00685787 C392.83077524 505.44336059 390.10924356 502.69226245 387.38088989 499.9228363 C386.49197304 499.02823952 386.49197304 499.02823952 385.58509827 498.11557007 C383.0828969 495.59722852 380.58675224 493.07291624 378.09011841 490.54905701 C376.25167883 488.69235081 374.41010106 486.83879652 372.56838989 484.9853363 C372.01917374 484.42782181 371.46995758 483.87030731 370.90409851 483.29589844 C368.09811972 480.47267166 365.23539562 477.7780638 362.21109009 475.18912411 C357.85893954 471.39599777 353.76780843 467.38398898 349.69509888 463.2947998 C348.51490803 462.11589059 348.51490803 462.11589059 347.31087494 460.91316503 C344.69381456 458.29774243 342.08032753 455.67877905 339.46682739 453.05979919 C337.58411243 451.17680196 335.70119983 449.29400431 333.81803894 447.41145325 C329.77371399 443.36765085 325.73121372 439.3220319 321.68997192 435.27514839 C315.84712125 429.42414625 310.00148802 423.57593054 304.15518737 417.72837584 C294.6684038 408.23940748 285.18385228 398.7482114 275.70071411 389.25559998 C266.49258082 380.03827776 257.28339044 370.8220138 248.07278442 361.60716248 C247.22016287 360.75414684 247.22016287 360.75414684 246.35031664 359.88389856 C243.49854135 357.03081816 240.64674534 354.17775847 237.79493904 351.32470906 C214.16282581 327.68224103 190.53433915 304.03615164 166.90823364 280.38768005 C163.84509757 281.75547545 161.74179668 283.30559487 159.37738419 285.67522717 C158.69160805 286.3576379 158.00583191 287.04004864 157.29927468 287.74313849 C156.55375714 288.49516384 155.8082396 289.24718918 155.04013062 290.02200317 C154.24198118 290.81914933 153.44383174 291.61629548 152.62149596 292.43759757 C149.93918795 295.11895043 147.26410431 297.80739768 144.58889771 300.49583435 C142.67127395 302.41677769 140.75213247 304.33620205 138.83303833 306.25567627 C134.69596023 310.39511742 130.56250845 314.53815126 126.43143463 318.68358421 C120.4503893 324.68531889 114.46334368 330.68103891 108.47472474 336.67521546 C98.74800179 346.41119764 89.02538653 356.15127072 79.30569458 365.89427185 C78.72389457 366.47746517 78.14209457 367.06065849 77.54266426 367.66152433 C76.96016128 368.24542284 76.37765831 368.82932135 75.77750373 369.43091375 C67.53011502 377.69804523 59.28177473 385.96422568 51.03225708 394.22923279 C50.45238007 394.81020065 49.87250305 395.39116852 49.27505401 395.98974147 C39.59465482 405.68818517 29.91220969 415.38458466 20.22871947 425.07994205 C14.25933548 431.05690384 8.29203518 437.0359324 2.327445 443.01767818 C-1.7638092 447.12053229 -5.85678169 451.22166675 -9.95108721 455.32147589 C-12.31083151 457.6845399 -14.66943882 460.04871058 -17.02637482 462.41457748 C-19.58717092 464.984861 -22.15107261 467.55200761 -24.71572876 470.11843872 C-25.45232342 470.85931046 -26.18891807 471.60018219 -26.94783378 472.36350459 C-30.93828438 476.34961257 -35.02068797 480.16049295 -39.3070519 483.82749778 C-42.25710311 486.40640758 -44.99564434 489.18729829 -47.74411011 491.9775238 C-48.32971207 492.56691238 -48.91531403 493.15630096 -49.5186615 493.7635498 C-51.35802589 495.61497087 -53.19404606 497.46965169 -55.02926636 499.32518005 C-57.47304408 501.79546228 -59.92006774 504.26246223 -62.36911011 506.7275238 C-62.92944443 507.29615646 -63.48977875 507.86478912 -64.0670929 508.45065308 C-65.38987164 509.78192171 -66.73819541 511.0877318 -68.09176636 512.38768005 C-68.42176636 512.38768005 -68.75176636 512.38768005 -69.09176636 512.38768005 C-69.18336013 454.56834077 -69.25383262 396.74900751 -69.29602768 338.92961007 C-69.30101679 332.10052911 -69.30620303 325.27144829 -69.31149292 318.44236755 C-69.31201596 317.76281143 -69.31253899 317.08325531 -69.31307788 316.38310657 C-69.33010687 294.37809589 -69.36013983 272.37312644 -69.39695524 250.36814071 C-69.43580836 227.10280336 -69.45976145 203.83749595 -69.46812034 180.57212353 C-69.47360352 166.64230489 -69.49090986 152.71260467 -69.52343222 138.78282249 C-69.54460726 129.22529432 -69.55095961 119.6678272 -69.54577187 110.1102773 C-69.54321477 104.59948885 -69.54708174 99.08890705 -69.56858826 93.57815552 C-69.58816673 88.52432085 -69.58896351 83.47083027 -69.57536194 78.41697919 C-69.57368284 76.59704953 -69.57866076 74.77709769 -69.59129909 72.95721114 C-69.72852957 51.96064957 -65.31812237 34.15430296 -50.36520386 18.5634613 C-35.81419446 4.63749527 -19.84008113 -0.09127853 0 0 Z " fill="#FFFFFF" transform="translate(90.09176635742188,-0.3876800537109375)"/>
</svg>
