<?xml version="1.0" encoding="UTF-8"?>
<svg version="1.1" xmlns="http://www.w3.org/2000/svg" width="512" height="512">
<path d="M0 0 C168.96 0 337.92 0 512 0 C512 21.45 512 42.9 512 65 C343.04 65 174.08 65 0 65 C0 43.55 0 22.1 0 0 Z " fill="#FFFFFF" transform="translate(0,373)"/>
<path d="M0 0 C168.96 0 337.92 0 512 0 C512 21.45 512 42.9 512 65 C343.04 65 174.08 65 0 65 C0 43.55 0 22.1 0 0 Z " fill="#FFFFFF" transform="translate(0,74)"/>
<path d="M0 0 C168.96 0 337.92 0 512 0 C512 21.12 512 42.24 512 64 C343.04 64 174.08 64 0 64 C0 42.88 0 21.76 0 0 Z " fill="#FFFFFF" transform="translate(0,224)"/>
</svg>
